<svg width="158" height="40" viewBox="0 0 158 40" fill="none" xmlns="http://www.w3.org/2000/svg">
<path d="M58.6582 19.2H61.9622V26.438H66.3862V29H58.6582V19.2ZM67.8588 19.2H71.1628V29H67.8588V19.2ZM75.4413 21.762H72.5713V19.2H81.6153V21.762H78.7453V29H75.4413V21.762ZM85.2982 21.762H82.4282V19.2H91.4722V21.762H88.6022V29H85.2982V21.762ZM92.8903 19.2H96.1943V26.438H100.618V29H92.8903V19.2ZM110.239 26.508V29H102.091V19.2H110.057V21.692H105.339V22.84H109.483V25.22H105.339V26.508H110.239ZM121.896 29.224C120.86 29.224 119.927 29.0093 119.096 28.58C118.265 28.1413 117.612 27.5347 117.136 26.76C116.669 25.976 116.436 25.0893 116.436 24.1C116.436 23.1107 116.669 22.2287 117.136 21.454C117.612 20.67 118.265 20.0633 119.096 19.634C119.927 19.1953 120.86 18.976 121.896 18.976C122.848 18.976 123.697 19.144 124.444 19.48C125.191 19.816 125.807 20.3013 126.292 20.936L124.206 22.798C123.599 22.0327 122.885 21.65 122.064 21.65C121.373 21.65 120.818 21.874 120.398 22.322C119.978 22.7607 119.768 23.3533 119.768 24.1C119.768 24.8467 119.978 25.444 120.398 25.892C120.818 26.3307 121.373 26.55 122.064 26.55C122.885 26.55 123.599 26.1673 124.206 25.402L126.292 27.264C125.807 27.8987 125.191 28.384 124.444 28.72C123.697 29.056 122.848 29.224 121.896 29.224ZM134.347 27.292H130.623L129.965 29H126.605L130.889 19.2H134.137L138.421 29H135.005L134.347 27.292ZM133.437 24.912L132.485 22.448L131.533 24.912H133.437ZM141.145 21.762H138.275V19.2H147.319V21.762H144.449V29H141.145V21.762ZM152.391 29.224C151.579 29.224 150.785 29.1353 150.011 28.958C149.245 28.7713 148.615 28.524 148.121 28.216L149.185 25.808C149.651 26.0787 150.174 26.298 150.753 26.466C151.331 26.6247 151.887 26.704 152.419 26.704C152.876 26.704 153.203 26.662 153.399 26.578C153.595 26.4847 153.693 26.3493 153.693 26.172C153.693 25.9667 153.562 25.8127 153.301 25.71C153.049 25.6073 152.629 25.4953 152.041 25.374C151.285 25.2153 150.655 25.0473 150.151 24.87C149.647 24.6833 149.208 24.3847 148.835 23.974C148.461 23.554 148.275 22.9893 148.275 22.28C148.275 21.664 148.447 21.104 148.793 20.6C149.138 20.096 149.651 19.6993 150.333 19.41C151.023 19.1207 151.859 18.976 152.839 18.976C153.511 18.976 154.169 19.0507 154.813 19.2C155.466 19.34 156.04 19.55 156.535 19.83L155.541 22.224C154.579 21.7387 153.669 21.496 152.811 21.496C151.961 21.496 151.537 21.7013 151.537 22.112C151.537 22.308 151.663 22.4573 151.915 22.56C152.167 22.6533 152.582 22.756 153.161 22.868C153.907 23.008 154.537 23.1713 155.051 23.358C155.564 23.5353 156.007 23.8293 156.381 24.24C156.763 24.6507 156.955 25.2107 156.955 25.92C156.955 26.536 156.782 27.096 156.437 27.6C156.091 28.0947 155.573 28.4913 154.883 28.79C154.201 29.0793 153.371 29.224 152.391 29.224Z" fill="white"/>
<g clip-path="url(#clip0_763_529)">
<path d="M14.0813 27.4658L13.8675 27.6407L12.4168 28.8809C12.4168 28.8809 11.8858 27.8246 11.6582 26.9724C11.3823 25.9296 11.7938 24.4831 11.7938 24.4831L10.557 24.9024C10.557 24.9024 10.3616 24.0525 10.6811 23.1173C11.0214 22.1193 11.3593 21.7425 11.3593 21.7425H9.41671C9.41671 21.7425 9.56384 21.2828 9.83741 20.7042C9.92937 20.5091 10.0374 20.3028 10.1593 20.0942C10.2719 19.9013 10.4053 19.7197 10.5478 19.5537C11.2191 18.7643 12.1019 18.2776 12.1019 18.2776C12.1019 18.2776 11.2467 18.2507 10.9639 18.2821C10.8604 18.2933 10.7593 18.3113 10.665 18.3292L10.6305 18.401L10.6351 18.336C10.5547 18.3539 10.4765 18.3741 10.4053 18.3943C10.1271 18.4728 9.93627 18.5602 9.91788 18.5692C9.92707 18.5512 10.1731 18.0466 10.6374 17.4523C10.6604 17.4232 10.6834 17.394 10.7064 17.3671C10.7846 17.2707 10.8673 17.172 10.957 17.0733C11.111 16.9029 11.3041 16.7325 11.4995 16.58C11.98 16.2032 12.4766 15.9161 12.4766 15.9161C12.4766 15.9161 12.2237 15.813 11.8881 15.7614C11.8375 15.7547 11.7869 15.7479 11.7317 15.7434C11.4697 15.721 11.2237 15.7434 11.0536 15.7704C10.911 15.7905 10.8214 15.8152 10.8214 15.8152C10.8214 15.8152 10.8214 15.8152 10.8214 15.813C10.8352 15.7928 10.9639 15.6022 11.1593 15.3353C11.3064 15.1379 11.4881 14.898 11.6858 14.6535C11.9088 14.3821 12.1731 14.113 12.4214 13.8798C12.8766 13.4492 13.2812 13.142 13.2812 13.142C13.2812 13.142 12.8467 13.2048 12.5433 13.2631C12.4536 13.281 12.3754 13.2967 12.3226 13.3124C12.1869 13.3528 11.918 13.4649 11.6973 13.5613C11.6559 13.577 11.6214 13.595 11.5846 13.6107C11.4467 13.6712 11.3455 13.7183 11.3386 13.7206C11.3524 13.6914 11.5961 13.1891 11.872 12.6777C12.0375 12.3727 12.2168 12.0632 12.3639 11.8502C12.3639 11.8502 12.3639 11.8502 12.3639 11.8479C12.4214 11.7672 12.4743 11.6999 12.5203 11.6528C12.6628 11.5071 12.803 11.3725 12.9387 11.2469C13.8973 10.37 14.7204 9.96636 14.7204 9.96636C14.7204 9.96636 14.2192 9.94618 14.0376 9.97757C13.5065 10.0695 13.1548 10.2355 13.1341 10.2444C13.164 10.1906 13.7801 9.10518 14.1341 8.70823C14.9755 7.76632 15.7687 7.38282 15.7687 7.38282C15.7687 7.38282 15.6836 7.29087 15.3756 7.20789C15.0951 7.13164 14.7089 7.1137 14.7089 7.1137C14.7089 7.1137 15.3158 6.33999 15.7664 5.99686C16.4239 5.49451 17.1526 5.2523 17.1526 5.2523C17.1526 5.2523 16.9549 5.27248 16.4584 5.1312C15.9595 4.98991 15.6537 4.68939 15.6537 4.68939C15.6537 4.68939 16.9135 4.00762 17.84 3.91792C18.4699 3.85737 20.3711 3.91792 20.3711 3.91792L19.493 3.25409L19.3274 3.13075C19.3274 3.13075 19.8838 2.83247 20.9206 2.74277C21.0999 2.72707 21.431 2.73155 21.7551 2.73828C22.1896 2.75174 22.6034 2.77416 22.6034 2.77416L22.5436 2.55887L22.3804 1.96457C22.3804 1.96457 23.0425 1.96905 23.8402 2.11258C23.9161 2.12604 24.0265 2.15519 24.1529 2.19107C24.6311 2.32788 25.3414 2.57905 25.3414 2.57905L25.4748 1.89056L25.5874 1.31195C25.5874 1.31195 25.9576 1.39717 26.4265 1.67302C26.5944 1.76946 26.7714 1.89056 26.953 2.04082C27.1967 2.24266 27.7231 2.85266 27.7231 2.85266C27.7231 2.85266 28.1668 2.47365 28.8657 2.1821C29.3002 2.00269 29.7025 1.9399 30.0152 1.92644C30.4014 1.9085 30.652 1.96681 30.652 1.96681L30.9279 2.28751L31.452 2.89751C31.452 2.89751 31.7647 2.81678 32.0865 2.74501C32.3141 2.69567 32.544 2.65082 32.6728 2.64633C33.7326 2.59699 34.2981 2.8549 34.2981 2.8549L33.8452 3.43799H33.8475C33.9188 3.43351 35.5786 3.32137 36.112 3.35726C37.7787 3.46715 38.7121 3.97847 38.7121 3.97847L37.9235 4.49204C37.9235 4.49204 39.8293 5.04373 40.788 5.5102C40.8915 5.55954 40.9995 5.61337 41.1076 5.66719L41.0846 5.62234L41.2639 5.64925C41.3191 5.70756 41.3696 5.76587 41.4179 5.82193C41.4892 5.85782 41.5604 5.8937 41.6294 5.92958C42.349 6.29513 43.0042 6.63826 43.0042 6.63826L42.3651 7.24602L42.3697 7.24826C43.2433 7.27293 47.1538 7.50168 47.7078 9.64342C48.294 11.9085 47.3791 16.9545 47.2641 17.5667L47.271 17.5779L47.7837 16.4902C47.7837 16.4902 50.0067 12.4243 48.3538 8.69702C47.4273 6.61135 42.434 5.82193 42.434 5.82193L41.8708 5.73895L42.4065 5.31509L40.7213 4.9473L41.7007 4.40009L39.5604 4.03454L39.8156 3.29222L37.0683 2.81005L37.4683 2.24938L35.3717 2.20677L35.4154 1.47567L32.9969 1.61247L33.1946 0.982283L31.0727 1.2985V0.632429L29.1393 0.944158L28.9462 0.25342L28.1186 0.764745L26.1553 0L26.4587 0.544965L23.8035 0.213052L24.077 0.621216L21.5321 0.764745L22.1505 1.08993L18.755 1.35905L19.555 1.70666L16.7825 2.29199L17.2929 2.58354L14.7089 3.43799L15.1801 4.0749C15.1893 4.0749 15.1962 4.07715 15.2054 4.07715C15.3158 4.08836 15.3756 4.09733 15.3756 4.09733L15.3388 4.19377L15.279 4.20722L15.1939 4.0906L15.1824 4.0749C13.6123 3.90671 3.00037 2.97825 0.386482 8.32922C-1.88947 12.9782 6.68097 22.6508 6.68097 22.6508L9.0029 25.3375C9.0052 25.8219 9.05118 26.6988 9.30636 27.403C9.47648 27.8717 10.3409 29.1186 10.3409 29.1186L11.065 28.5804C11.065 28.5804 11.1317 29.0558 11.5087 29.7174C11.6628 29.9865 12.2674 30.5719 12.2674 30.5719L13.5778 30.3521C13.5778 30.3521 13.718 30.9374 14.2675 31.747C14.4422 32.0027 15.1089 32.8056 15.1089 32.8056L16.0537 32.0431C16.0537 32.0431 16.2078 32.6688 16.8078 33.5412C17.0147 33.8417 17.7779 34.4046 17.7779 34.4046L18.7504 33.6892L20.4838 36.0484L19.1987 33.595L17.7825 30.8903L17.086 32.3862C17.086 32.3862 15.6767 31.2245 15.2514 30.5965C14.187 29.0244 14.0813 27.4658 14.0813 27.4658ZM12.7456 8.23503C13.0858 8.20588 13.3065 8.19915 13.3065 8.19915C13.3065 8.19915 13.0375 8.31801 12.6536 8.50639C12.0605 8.80018 11.1961 9.26665 10.6374 9.73537C10.2144 10.0897 9.92247 10.5472 9.73166 10.9374C10.5708 10.4822 11.5133 10.1592 12.1524 9.96636C12.5938 9.83404 12.8927 9.76452 12.9203 9.76004C12.8927 9.78022 12.4743 10.0763 11.9317 10.5046C11.2467 11.0473 10.3662 11.8076 9.81672 12.5006C9.46958 12.9401 9.12474 13.5636 8.82128 14.1938C9.32245 13.8798 9.88569 13.6309 10.334 13.4559C10.7984 13.2765 11.1409 13.1778 11.1662 13.1711C11.1294 13.2003 10.4972 13.7026 9.8742 14.3149C9.54545 14.6378 9.2213 14.9922 8.98911 15.3218C8.44656 16.0911 8.3569 17.0532 8.3408 17.4254C8.50863 17.2527 8.67645 17.0868 8.84197 16.932C9.69488 16.1224 10.4282 15.5775 10.4512 15.5618C10.4007 15.6448 8.85807 18.244 8.33621 20.1727C8.33621 20.2018 8.33621 20.231 8.33851 20.2579C9.13394 19.5761 9.8581 19.1119 9.90178 19.085C9.865 19.1298 9.20291 19.9574 8.81439 20.9688C8.58909 21.5542 8.44886 21.8457 8.40058 22.6217V22.6306C8.40747 22.8347 8.41437 22.9738 8.41667 23.0298C8.41897 23.0343 8.42127 23.0388 8.42587 23.041L8.41897 23.0567C8.41667 23.0455 8.41437 23.0321 8.41207 23.0209C8.40518 23.0119 8.39598 23.0007 8.38908 22.9895V23.0007L8.38678 22.985C6.68787 20.6122 2.45782 14.0502 3.97512 9.36981C4.87171 6.6091 11.1156 6.50594 13.3456 6.55752C12.8007 6.90738 11.934 7.53981 11.0765 8.51312C11.6881 8.35389 12.3134 8.2754 12.7456 8.23503ZM13.4192 6.56425C13.3939 6.56425 13.3686 6.56201 13.3433 6.56201C13.3824 6.53734 13.4192 6.51491 13.4536 6.49249C13.4421 6.51716 13.4284 6.53958 13.4192 6.56425Z" fill="white"/>
<path d="M37.6108 12.8057C37.642 12.8337 37.6252 12.8173 37.6108 12.8057V12.8057Z" fill="white"/>
<path d="M26.1438 14.4425C25.6909 14.6847 25.0978 14.743 24.4357 14.4941C24.4265 14.4896 24.4173 14.4851 24.4081 14.4806C23.392 13.7271 23.3621 12.6304 23.9023 11.924C23.8518 11.8724 23.8265 11.85 23.8173 11.841C23.8196 11.8433 23.8242 11.8478 23.8265 11.85C23.8127 11.8365 23.792 11.8164 23.7575 11.7827C22.7368 12.4578 22.4931 14.0276 23.8564 15.0323C23.8656 15.0391 23.8747 15.0435 23.8839 15.0458C24.8909 15.4225 25.753 15.1534 26.2656 14.5995C26.3461 14.5165 26.245 14.3887 26.1438 14.4425ZM23.8357 11.8567C23.8495 11.8702 23.8564 11.8791 23.8357 11.8567V11.8567Z" fill="white"/>
<path d="M40.3008 24.5301C40.2801 24.6445 40.1169 24.7342 39.9169 24.7342C39.7031 24.7342 39.5284 24.6311 39.5284 24.5055C39.5284 24.4898 39.5307 24.4741 39.5353 24.4606C39.1628 24.4247 38.7881 24.3889 38.4157 24.353C38.3467 24.4449 38.2019 24.5077 38.0317 24.5077C37.7973 24.5077 37.6064 24.3866 37.6064 24.2386C37.6064 24.0883 37.7973 23.9695 38.0317 23.9695C38.1168 23.9695 38.1973 23.9852 38.2639 24.0143C39.618 24.1511 40.9744 24.2745 42.3308 24.3754C42.356 24.3776 42.379 24.3844 42.3974 24.3933C42.4572 24.2431 42.4894 24.0839 42.4894 23.9201C42.4894 23.9 42.4871 23.882 42.4871 23.8618C42.4848 23.8618 42.4848 23.8618 42.4825 23.8618C41.248 23.7385 40.0088 23.6936 38.7674 23.6757C38.5513 23.6735 38.5513 23.346 38.7674 23.3483C40.0019 23.3662 41.2388 23.4111 42.4687 23.5344C42.4342 23.2137 42.356 22.9244 42.2549 22.6575C42.2503 22.6598 42.2434 22.662 42.2388 22.662C41.3859 22.7966 40.533 22.9266 39.6801 23.05C39.6801 23.0522 39.6824 23.0545 39.6824 23.059C39.6824 23.1958 39.4548 23.3079 39.1766 23.3079C38.8961 23.3079 38.6709 23.1958 38.6709 23.059C38.6709 22.9222 38.8984 22.81 39.1766 22.81C39.2663 22.81 39.3513 22.8235 39.4249 22.8437C39.4433 22.7943 39.4801 22.7517 39.5353 22.745C40.3997 22.6216 41.2641 22.4893 42.1285 22.3525C41.5284 21.0832 40.4916 20.3386 41.4916 19.0401C42.8411 17.2864 43.1768 10.1121 40.2571 8.38303C37.3352 6.65394 32.8522 7.52409 32.8522 7.52409C32.8522 7.52409 27.498 5.94975 23.3415 6.55751C19.1828 7.16527 14.5642 12.1305 14.5642 12.1305L17.2149 10.9352C17.1574 10.9935 15.3045 12.8212 14.801 13.5075C14.3297 14.1467 13.2837 16.2794 13.2837 16.2794L16.87 14.1287C16.8103 14.1825 14.8424 15.9879 15.0378 17.8022C15.3412 20.592 20.7667 19.8138 21.7553 21.5878C21.9323 21.9062 21.9921 22.1417 21.9806 22.3346C22.4335 22.3682 22.8863 22.4019 23.3392 22.4355C24.537 22.5252 25.737 22.6149 26.9348 22.7046C26.8405 22.6396 26.783 22.5499 26.783 22.449C26.783 22.2539 27.006 22.0946 27.2796 22.0946C27.5532 22.0946 27.7762 22.2539 27.7762 22.449C27.7762 22.5768 27.6819 22.6867 27.5417 22.7495C27.6038 22.754 27.6635 22.7585 27.7256 22.7629C27.9394 22.7786 27.9417 23.1061 27.7256 23.0904C26.8796 23.0276 26.0336 22.9648 25.1876 22.8997C24.091 22.8168 22.9944 22.7293 21.8955 22.653C21.7231 22.9962 21.3599 23.2496 21.3714 23.8663C22.7047 23.8327 24.0358 23.7497 25.3623 23.6196C25.5761 23.5994 25.5738 23.9246 25.3623 23.9471C24.8083 24.0009 24.2519 24.048 23.6956 24.0861C22.9323 24.1377 22.1691 24.1736 21.4058 24.1937C21.4242 24.2924 21.4518 24.3978 21.4886 24.5122C21.5162 24.5997 21.5668 24.6826 21.6334 24.7656C23.3875 24.6804 25.1301 24.4472 26.8681 24.2117C26.9578 24.2005 27.0497 24.2319 27.075 24.3261C27.0957 24.4023 27.0474 24.5145 26.9578 24.5279C26.4221 24.5997 25.8865 24.6737 25.3485 24.7432C24.2289 24.8867 23.1024 25.0101 21.976 25.0774C23.9554 26.4521 31.0522 27.024 32.9511 25.2814C34.0523 24.27 34.4109 21.0899 32.3902 20.8298C30.3671 20.5674 28.9119 20.7827 27.7785 20.5651C26.1462 20.2512 25.1094 19.0199 25.1094 19.0199C25.1094 19.0199 32.4982 19.5806 34.8638 19.5806C35.8753 19.5806 39.2571 18.7643 38.9099 19.6905C38.1237 21.7829 36.5489 20.8298 35.6638 22.3413C35.2454 23.0567 35.3121 24.5414 35.7627 25.0617C36.4639 25.8713 38.9881 26.0327 40.0341 25.8623C40.4272 25.7972 40.802 25.6874 41.133 25.5393C40.7928 25.4452 40.4502 25.3487 40.11 25.2545C39.9031 25.1962 39.9904 24.8822 40.1996 24.9383C40.5997 25.0504 40.9997 25.1626 41.402 25.2725C41.4503 25.2859 41.4825 25.3151 41.5008 25.3487C41.8112 25.1648 42.0664 24.9406 42.2388 24.6894C41.5905 24.64 40.9445 24.5885 40.3008 24.5301ZM28.6038 24.6714C28.3279 24.6714 28.1049 24.5122 28.1049 24.3171C28.1049 24.122 28.3279 23.9628 28.6038 23.9628C28.8797 23.9628 29.1027 24.122 29.1027 24.3171C29.1027 24.5145 28.8797 24.6714 28.6038 24.6714ZM26.4474 21.3635C27.5072 21.7134 28.567 22.1148 29.5464 22.6486C29.6475 22.5947 29.7717 22.5633 29.9027 22.5633C30.2567 22.5633 30.5418 22.7854 30.5418 23.0612C30.5418 23.3371 30.2567 23.5591 29.9027 23.5591C29.5487 23.5591 29.2636 23.3371 29.2636 23.0612C29.2636 23.0029 29.2774 22.9468 29.3027 22.893C28.9073 22.6822 28.4981 22.4938 28.0842 22.3189C26.7325 21.7493 25.3163 21.3321 23.8979 20.9621C22.5484 20.61 21.1874 20.3117 19.8265 20.009C19.615 19.9619 19.7046 19.6479 19.9161 19.6927C20.6541 19.8565 21.3943 20.0202 22.13 20.1906C23.5852 20.5293 25.0313 20.897 26.4474 21.3635ZM28.7279 14.8979C28.3992 15.8668 26.9945 17.5129 26.9945 17.5129C26.9945 17.5129 27.3049 16.1516 26.6773 16.118C26.2221 16.0933 25.2841 16.0103 24.1278 15.9094C22.2725 15.7479 20.3506 14.2274 20.6702 12.8482C20.9598 11.5945 22.8266 11.3501 24.4082 11.229C27.7739 10.9688 28.3118 11.4465 29.0038 12.7495C29.2153 13.1442 29.0912 13.8282 28.7279 14.8979ZM38.2364 16.4947C37.9375 16.858 38.2364 17.5959 38.1214 17.5869C37.0593 17.5084 35.1512 14.3619 35.5121 13.1016C35.7788 12.1686 37.8593 12.1036 38.8364 12.3054C40.0433 12.5544 40.9054 13.2877 40.9997 14.039C41.0893 14.7499 40.1491 16.1179 39.3559 16.109C38.9122 16.1023 38.4846 16.192 38.2364 16.4947Z" fill="white"/>
<path d="M39.6617 15.0348C39.7238 14.9653 39.6388 14.8621 39.556 14.907C39.1859 15.1133 38.6985 15.1693 38.149 14.9742C38.1421 14.972 38.133 14.9675 38.1261 14.963C37.2754 14.3575 37.2364 13.4537 37.6709 12.8661C37.6364 12.8325 37.6157 12.8145 37.6065 12.8033L37.6088 12.8056C37.5973 12.7944 37.5789 12.7764 37.5513 12.7495C36.7191 13.3214 36.5444 14.6176 37.6824 15.425C37.6893 15.4295 37.6962 15.434 37.7053 15.4362C38.5422 15.7323 39.2479 15.4968 39.6617 15.0348Z" fill="white"/>
<path d="M36.8727 36.2344C36.8681 36.757 36.9003 37.3939 36.9279 37.82C36.8612 37.8962 36.7923 37.9725 36.7233 38.0487C36.4957 37.8065 36.1578 37.4073 35.9899 36.9947C35.9508 36.8983 35.9141 36.7884 35.8819 36.6717C35.3209 37.9052 34.5163 39.6612 34.5163 39.6612C34.5163 39.6612 33.8657 38.3874 33.8473 37.2885C33.8082 37.3019 33.7669 37.3154 33.7255 37.3288C33.4703 37.5352 33.1461 37.8783 32.799 38.4502C31.9852 39.789 31.8587 40.0021 31.8587 40.0021C31.8587 40.0021 31.307 38.7283 30.9713 38.0398C30.9438 37.9815 30.9139 37.9254 30.884 37.8693C30.6978 38.0263 30.5254 38.2192 30.3828 38.4502C29.569 39.789 29.4426 40.0021 29.4426 40.0021C29.4426 40.0021 28.8908 38.7283 28.5552 38.0398C28.3758 37.672 28.1758 37.358 27.9873 37.1001C27.9505 37.0822 27.9115 37.062 27.8747 37.044C27.8908 37.1943 27.9 37.3378 27.9069 37.4679C27.9482 38.3582 27.8839 39.502 27.8839 39.502C27.8839 39.502 27.0632 37.7572 26.5689 36.813C26.2654 36.2344 25.9275 35.7567 25.6171 35.38C25.4263 36.1357 25.1137 37.0283 25.1137 37.0283C25.1137 37.0283 24.9504 35.5482 24.6585 34.6466C24.3964 33.8393 24.132 33.1059 23.9389 32.5901C23.8722 32.4129 23.8148 32.2604 23.7665 32.1393C23.7228 32.0294 23.6814 31.924 23.6446 31.8254C23.5182 31.4822 23.4354 31.1997 23.3986 31.0113C23.2722 30.3878 23.2607 29.4751 24.2286 28.6004C25.1964 27.7235 31.2403 27.3625 33.5117 27.284C35.783 27.2055 38.082 27.367 38.905 28.4905C39.5855 29.419 38.3073 32.5139 37.2222 34.2788C37.0658 34.687 36.9141 35.2342 36.8796 35.8801C36.875 35.9855 36.8727 36.1066 36.8727 36.2344Z" fill="white"/>
</g>
<defs>
<clipPath id="clip0_763_529">
<rect width="122" height="40" fill="white"/>
</clipPath>
</defs>
</svg>
